<?xml version="1.0" encoding="UTF-8" standalone="no"?>
<!DOCTYPE svg PUBLIC "-//W3C//DTD SVG 1.1//EN" "http://www.w3.org/Graphics/SVG/1.1/DTD/svg11.dtd">
<svg width="100%" height="100%" viewBox="0 0 1024 1024" version="1.1" xmlns="http://www.w3.org/2000/svg" xmlns:xlink="http://www.w3.org/1999/xlink" xml:space="preserve" xmlns:serif="http://www.serif.com/" style="fill-rule:evenodd;clip-rule:evenodd;stroke-linejoin:round;stroke-miterlimit:2;">
    <path id="outline-stroke" d="M1021.39,1008.85L957.785,945.245L957.785,8.875C957.785,5.286 955.622,2.049 952.311,0.675C948.993,-0.699 945.175,0.063 942.634,2.6L713.906,231.325L485.166,2.6L485.133,2.6C483.502,0.976 481.277,-0.001 478.886,-0.001L8.873,-0.001C5.286,-0.001 2.046,2.161 0.672,5.478C-0.697,8.795 0.06,12.612 2.597,15.149L66.211,78.759L66.211,1015.12C66.211,1018.71 68.372,1021.95 71.69,1023.32C72.788,1023.77 73.939,1024 75.083,1024C77.392,1024 79.663,1023.1 81.361,1021.4L310.087,792.687L538.825,1021.4L538.861,1021.4C540.493,1023.02 542.715,1024 545.107,1024L1015.13,1024C1018.72,1024 1021.95,1021.83 1023.33,1018.52C1024.7,1015.2 1023.93,1011.39 1021.39,1008.85ZM713.908,256.427L927.488,470.02L500.317,470.02L651.341,318.991L713.908,256.427ZM523.676,536.244L96.511,536.244L310.087,322.652L523.676,536.244ZM500.317,487.768L927.484,487.768L713.908,701.343L500.317,487.768ZM96.511,553.996L523.672,553.996L310.085,767.588L227.092,684.594L96.511,553.996ZM726.461,713.895L940.037,500.319L940.037,927.485L726.461,713.895ZM585.691,359.545L478.89,466.34L265.312,252.751L692.483,252.751L585.691,359.545ZM121.223,486.427L83.96,523.692L83.96,96.513L297.535,310.104L121.223,486.427ZM545.099,557.671L758.678,771.263L331.512,771.263L545.099,557.671ZM940.037,457.466L726.461,243.876L940.037,30.299L940.037,457.466ZM265.312,235.001L478.89,21.423L692.483,235.001L265.312,235.001ZM457.465,17.749L306.44,168.771L243.888,231.325L30.297,17.749L457.465,17.749ZM83.961,993.698L83.961,566.546L297.535,780.139L83.961,993.698ZM758.678,789.011L688.955,858.727L545.099,1002.58L331.512,789.011L758.678,789.011ZM566.53,1006.25L636.253,936.531L780.109,792.687L993.696,1006.25L566.53,1006.25L566.53,1006.25Z" style="fill:white;fill-rule:nonzero;"/>
    <path d="M940.037,927.485L940.037,500.319L726.461,713.895L940.037,927.485Z" style="fill:rgb(0,87,123);fill-rule:nonzero;"/>
    <path d="M713.91,701.343L927.486,487.768L500.317,487.768L713.91,701.343Z" style="fill:rgb(0,121,170);fill-rule:nonzero;"/>
    <path d="M927.489,470.02L713.91,256.427L651.341,318.991L500.317,470.02L927.489,470.02Z" style="fill:rgb(0,150,211);fill-rule:nonzero;"/>
    <path d="M478.89,466.34L585.691,359.545L692.483,252.751L265.312,252.751L478.89,466.34Z" style="fill:rgb(1,176,240);fill-rule:nonzero;"/>
    <path d="M940.037,457.466L940.037,30.299L726.461,243.876L940.037,457.466Z" style="fill:rgb(1,176,240);fill-rule:nonzero;"/>
    <path d="M692.483,235.001L478.89,21.423L265.312,235.001L692.483,235.001Z" style="fill:rgb(39,188,243);fill-rule:nonzero;"/>
    <path d="M457.465,17.749L30.296,17.749L243.888,231.325L306.44,168.771L457.465,17.749Z" style="fill:rgb(79,201,245);fill-rule:nonzero;"/>
    <path d="M83.961,96.513L83.961,523.692L121.223,486.427L297.535,310.104L83.961,96.513Z" style="fill:rgb(6,77,81);fill-rule:nonzero;"/>
    <path d="M310.087,322.652L96.511,536.244L523.676,536.244L310.087,322.652Z" style="fill:rgb(13,107,113);fill-rule:nonzero;"/>
    <path d="M96.511,553.996L227.092,684.594L310.085,767.588L523.672,553.996L96.511,553.996Z" style="fill:rgb(18,132,141);fill-rule:nonzero;"/>
    <path d="M83.961,566.546L83.961,993.698L297.535,780.139L83.961,566.546Z" style="fill:rgb(23,155,160);fill-rule:nonzero;"/>
    <path d="M545.099,557.671L331.512,771.262L758.678,771.262L545.099,557.671Z" style="fill:rgb(23,155,160);fill-rule:nonzero;"/>
    <path d="M331.512,789.011L545.099,1002.58L688.955,858.727L758.678,789.011L331.512,789.011Z" style="fill:rgb(41,166,162);fill-rule:nonzero;"/>
    <path d="M636.252,936.531L566.53,1006.25L993.696,1006.25L780.109,792.687L636.252,936.531Z" style="fill:rgb(65,177,164);fill-rule:nonzero;"/>
</svg>
